<svg width="56" height="56" viewBox="0 0 56 56" fill="none" xmlns="http://www.w3.org/2000/svg">
<g clip-path="url(#clip0_200_748)">
<path d="M30.578 29.9181L52.6658 29.9308C54.3219 30.2425 55.1626 31.7152 54.9659 33.3564L53.3764 49.4668C57.8911 49.1965 55.9748 56.3436 52.1962 55.9873H2.91584C1.28828 55.8919 0.279388 54.8073 0.142965 53.2074C-0.304375 47.9464 0.472918 42.0335 0.168346 36.7057C-0.0156659 34.8196 2.00212 33.4455 2.53512 32.2495C5.17158 26.3556 4.36573 18.2893 4.73693 12.0614C5.30165 2.55738 15.2891 -3.30153 23.4871 2.01029C30.8191 6.76231 28.4935 14.571 29.1408 21.9121C29.3787 24.6126 29.9434 27.2971 30.5811 29.9181H30.578ZM27.0786 14.5297V10.7987C27.0786 9.98121 26.1268 7.72925 25.6794 6.95951C21.7105 0.124118 11.4756 0.353131 7.82706 7.37937C7.48759 8.03142 6.6405 10.3184 6.6405 10.9545V14.5265C6.88162 14.2498 7.58912 14.2784 7.71602 14.1734C7.75409 14.1416 7.96031 13.5277 8.16019 13.2669C9.30868 11.772 10.987 12.195 12.6939 11.7783C13.9915 11.4603 15.324 10.8591 16.4503 10.1434C17.5765 9.42776 18.89 7.74834 20.416 8.73436C20.9712 9.09379 21.3869 10.382 21.9992 10.9577C23.1128 12.001 24.7752 11.9437 25.7207 13.2605C26.168 13.8808 25.965 14.2784 27.0722 14.5265L27.0786 14.5297ZM19.4738 10.4011C18.1127 11.2026 16.8627 12.2332 15.3557 12.8598C13.5251 13.62 12.383 13.6232 10.5365 13.9031C9.19764 14.1066 9.76236 14.905 9.18495 15.5666C8.70588 16.1137 7.9508 15.7924 7.29089 16.3649C6.22806 17.2874 6.50091 18.9827 7.79851 19.4852C8.34737 19.6984 8.96921 19.552 9.32137 20.1818C9.67353 20.8116 9.83533 22.3829 10.2129 23.2576C13.2491 30.2902 21.5328 29.2596 23.9599 22.1157C24.2073 21.3873 24.1217 20.0864 24.9053 19.727C25.3622 19.5171 25.8983 19.6316 26.3711 19.2912C27.2816 18.6424 27.2879 17.2078 26.5329 16.4222C25.8761 15.7383 25.0798 16.1264 24.6166 15.6461C24.2676 15.2835 24.4072 14.466 24.0297 14.0907C23.7409 13.8045 22.805 13.6581 22.3799 13.4387C21.2409 12.8502 19.8799 11.6416 19.4769 10.3915L19.4738 10.4011ZM7.72554 21.3873L6.48504 21.0438C6.30103 24.4822 5.63478 27.8887 4.74327 31.2062C6.82769 30.7514 9.22936 30.7005 11.2757 30.2139C11.5993 30.1375 12.0498 30.0198 12.1577 29.6668C12.6146 28.1559 11.4756 28.0478 10.6761 27.2431C9.55297 26.1107 8.59484 24.374 8.06501 22.8759C7.95714 22.5706 7.7763 21.4478 7.72554 21.3905V21.3873ZM27.2372 21.0406C25.6667 21.136 25.8825 22.4274 25.4129 23.5788C24.9434 24.7303 24.147 26.063 23.2809 27.0013C22.9319 27.3766 21.6248 28.2863 21.5709 28.3818C21.3869 28.703 21.4725 29.7399 21.8596 30.0071C22.5417 30.481 24.9846 30.392 25.8856 30.726C26.7994 30.1375 27.5227 29.7686 28.6617 29.934L27.2372 21.0406ZM19.6324 29.4568C17.7161 30.0707 16.0093 29.9976 14.0898 29.4568C14.1057 30.2584 13.7091 31.0631 13.0587 31.5243C12.3449 32.0301 11.7548 31.8392 11.0822 32.2368C12.8017 36.1491 19.3818 36.5912 21.9167 33.4137C22.0975 33.1878 22.5703 32.469 22.64 32.2304C22.7479 31.8551 21.885 32.0205 21.5296 31.9219C20.4033 31.607 19.7276 30.5955 19.6324 29.4537V29.4568ZM27.2784 32.0396C27.0754 32.2559 27.0595 32.733 27.0722 33.0256C27.2181 36.429 27.84 40.2395 28.1858 43.6747C28.3349 45.141 28.3064 46.8205 28.5157 48.2645C28.5792 48.7035 28.76 49.1329 29.1376 49.3873L51.0065 49.4C51.7045 49.1742 51.7013 47.991 51.787 47.323C52.32 43.2135 52.891 37.9303 53.0528 33.824C53.0972 32.7394 53.3003 31.6897 51.8726 31.6738C44.3154 32.2018 35.8636 30.9995 28.4111 31.6738C28.097 31.7024 27.4783 31.8201 27.2721 32.0396H27.2784ZM2.60492 54.0757H24.7023C24.0804 51.9923 23.8742 49.0724 26.9199 49.47L25.1623 32.4944C24.5151 32.065 23.7727 34.0276 23.3571 34.546C20.3653 38.2675 13.4839 38.3406 10.4477 34.6192C10.0891 34.1802 9.44827 32.8062 9.25792 32.6344C9.09294 32.4881 8.99776 32.469 8.78202 32.4626C8.21095 32.4404 5.99011 32.857 5.37145 33.032C3.81686 33.4678 2.57954 34.7432 2.11634 36.2827C2.33525 41.6804 1.58651 47.727 2.04019 53.0547C2.07509 53.4714 2.10048 53.9898 2.60175 54.0789L2.60492 54.0757ZM54.0078 51.3753H26.1268C25.9776 52.6635 26.4662 54.0439 27.9415 54.0821L52.6531 54.0662C53.9507 53.7004 54.1474 52.5967 54.0078 51.3753Z" fill="#FAF3E7"/>
<path d="M40.029 3.76918C40.8729 3.72147 41.9199 4.30036 42.2911 5.07646L47.5037 15.2548C47.8178 17.2555 45.4637 18.6487 44.531 20.169C44.9085 20.6048 45.4542 21.0342 45.5748 21.6322C45.6953 22.2302 45.689 24.5712 45.5367 25.1723C45.2797 26.1806 44.3089 26.9217 43.3 27.0585C42.0373 27.2303 38.0969 27.2303 36.8342 27.0585C33.8773 26.6546 33.9027 21.7721 35.6222 20.0259C34.3722 18.2479 32.015 17.0901 32.9604 14.625C33.8456 12.319 36.3868 7.56697 37.7225 5.42316C38.2523 4.5739 38.944 3.82325 40.029 3.76282V3.76918ZM39.1185 12.4653V6.90538L34.5308 15.7224L37.694 19.5297H42.602L45.616 15.8719L41.0157 6.90856V12.2299C44.2232 13.8394 43.0811 18.2829 39.3628 17.6976C36.8913 17.3096 36.5931 13.0919 39.1153 12.4685L39.1185 12.4653ZM39.8704 14.0779C38.6806 14.2974 39.1946 16.0977 40.2701 15.9323C41.3456 15.7669 41.2441 13.8235 39.8704 14.0779ZM36.6216 24.9751C37.0816 25.4363 42.2816 25.0578 43.2873 25.1405C44.109 24.8956 44.109 22.1029 43.4586 21.6926C42.6147 21.1582 38.265 21.7053 37.015 21.5495C36.1235 21.6799 36.3392 24.6857 36.6216 24.972V24.9751Z" fill="#FAF3E7"/>
<path d="M42.9351 36.4321C43.1477 36.6166 47.7385 36.3335 48.5507 36.4385C49.623 36.5784 49.7277 37.838 48.7379 38.2324C48.0462 38.5091 47.1357 38.2801 46.4028 38.3533C46.5995 38.894 46.9231 39.3679 47.1579 39.8959C47.2911 40.1917 47.2943 40.7007 47.4307 40.8915C47.6592 41.2128 48.9346 41.1555 49.3058 42.3483C49.5754 43.2198 49.5691 45.4718 48.8584 46.1365C48.2017 46.7536 45.4923 46.8077 44.7562 46.4292C43.6299 45.8503 43.6839 43.522 43.8996 42.4373C44.1344 41.2732 45.6287 41.0887 45.6001 40.9742C45.1814 39.6828 44.2835 38.7604 42.9954 38.3469C42.6306 39.2598 42.3577 39.9691 41.2505 40.1027C39.7942 40.2776 37.3545 40.3699 37.364 38.3501C35.9903 38.5918 35.0004 39.616 34.6641 40.9583C35.489 41.34 36.1362 41.6453 36.3424 42.6282C36.6216 43.9641 36.628 46.3306 34.8989 46.5977C33.5378 46.8077 31.0759 46.8904 30.8665 45.1028C30.7998 44.5462 30.7935 42.6345 30.9394 42.1543C31.2504 41.1332 32.4909 41.2414 32.7415 41.0219C32.8525 40.9265 33.3475 38.6491 33.8773 38.3501C33.1412 38.2928 31.0188 38.6364 30.8665 37.6249C30.8284 37.3736 30.8887 36.817 31.0663 36.6389C31.5454 36.1586 36.371 36.6007 37.3577 36.4353C37.3926 35.2743 38.0429 34.6382 39.1787 34.53C40.8126 34.371 42.7131 34.4282 42.9256 36.4289L42.9351 36.4321ZM41.0189 36.4448H39.1153L39.1851 38.2038C39.3977 38.5123 40.6064 38.2865 41.0189 38.3533V36.4448ZM34.5245 42.9558H32.6209C32.6876 43.3693 32.4623 44.578 32.77 44.7943L34.5245 44.8642V42.9558ZM47.5132 42.9558H45.6097C45.6763 43.3693 45.451 44.578 45.7588 44.7943L47.5132 44.8642V42.9558Z" fill="#FAF3E7"/>
</g>
<defs>
<clipPath id="clip0_200_748">
<rect width="56" height="56" fill="white"/>
</clipPath>
</defs>
</svg>
