<svg width="56" height="56" viewBox="0 0 56 56" fill="none" xmlns="http://www.w3.org/2000/svg">
<g clip-path="url(#clip0_200_766)">
<path d="M30.718 18.9021C32.2475 20.2207 32.7612 22.3986 32.1555 24.2147C31.8488 25.1367 31.0706 25.7003 30.787 26.5771C32.374 26.2431 37.4726 30.912 38.224 30.7764L44.3729 24.747C46.9146 23.1571 49.8089 24.8479 49.1572 27.6834C48.954 28.5636 45.0438 32.7247 45.3237 32.9091L52.1128 33.3439C54.9764 34.1372 54.5548 37.8703 51.626 38.1904C47.8768 38.6009 43.2536 37.8772 39.4085 38.1904L35.6325 36.9588C35.6479 37.5467 35.552 38.1382 35.7207 38.7227C35.989 39.6481 37.6528 41.2172 37.7601 42.1635C37.8943 43.3325 36.1922 43.7674 36.0082 44.9538C35.9392 45.3852 35.966 46.2098 36.1232 46.6238C36.4951 47.6223 38.0285 47.7614 37.7218 49.1427C37.5953 49.7132 35.7552 52.4513 35.1878 52.6635C34.3521 52.9767 32.9951 52.2043 32.2667 52.3121C32.1709 52.3261 30.695 53.1541 30.5991 53.2376C29.9743 53.7664 29.9359 55.5651 29.2344 55.8678C28.9047 56.0104 25.1824 56.0348 24.684 55.9513C23.4458 55.7426 23.6758 53.7247 22.9129 53.161C22.8018 53.081 21.2645 52.3191 21.1648 52.3087C20.2295 52.2112 18.9069 53.2724 17.8872 52.4409C17.6227 52.2252 15.7941 49.247 15.7404 48.9235C15.5909 48.005 17.454 47.0413 17.5958 46.3628C18.0252 44.3171 16.9901 44.3136 16.0471 43.0264C15.5411 42.334 15.7979 42.0209 16.1391 41.3459C16.8751 39.8847 18.4354 38.7853 17.9869 36.9588C17.8527 36.8231 14.828 38.1243 14.2147 38.1938C11.9797 38.4409 4.80723 38.4478 2.59912 38.173C-0.368018 37.8077 -0.732202 34.2868 2.0931 33.3474L8.29956 32.9125C7.35652 31.253 4.10186 28.5532 4.2437 26.6953C4.42004 24.3817 7.32968 23.3484 9.31544 24.8201C10.8795 25.9786 12.9113 28.4836 14.4025 29.9274C14.6134 30.1292 15.2612 30.8181 15.5334 30.7798C17.9792 29.2942 20.08 27.339 22.8324 26.3161C17.5077 21.4384 25.3932 14.3131 30.7141 18.9021H30.718ZM26.0832 19.2361C21.3335 19.9598 22.3916 26.7962 27.5438 26.01C32.1977 25.3002 31.1972 18.4568 26.0832 19.2361ZM33.8653 38.5244C34.2103 37.1779 32.9107 34.3807 35.4025 34.9687C36.7826 35.2957 39.2092 37.0075 40.3899 36.089L47.3478 27.2764C47.8193 26.2465 46.5849 25.4846 45.5997 26.0447L39.0252 32.5646L38.247 32.9021C37.5109 32.9021 32.9031 29.2142 31.7338 28.6263C29.5986 27.5547 24.7377 27.4747 22.5104 28.3062C21.0115 28.8663 16.0893 32.9508 15.2152 32.8777C14.8012 32.843 14.1303 32.1506 13.8275 31.8618C11.8341 29.9901 9.99398 27.9443 8.02738 26.0447C6.88499 25.4463 5.77711 26.3683 6.2793 27.4538L13.3445 36.343C14.7015 36.9483 17.8603 34.5129 19.2174 34.8782C20.2141 35.1496 19.5394 37.7381 19.7618 38.5209C20.2065 38.5139 20.8237 38.841 21.2032 38.8166C21.3258 38.8097 23.1084 37.8668 23.1736 37.7833C23.5761 37.2893 23.5186 35.8976 24.1358 35.3584C24.5997 35.0939 28.943 35.0905 29.3494 35.3584C30.0624 35.8246 29.9704 37.3902 30.603 37.9155C31.3927 38.5731 32.8494 38.9384 33.8691 38.5209L33.8653 38.5244ZM42.6095 36.4299H51.8176C52.2317 36.0681 52.4118 35.4523 51.9058 35.1218C49.759 34.7008 47.2711 34.6939 45.0361 34.6695C44.5876 34.666 44.1238 34.2798 43.7711 34.753L42.6134 36.4299H42.6095ZM2.58379 36.4299H11.0137L9.56462 34.6591L2.41895 35.0522C1.79792 35.2644 2.1161 36.3116 2.57996 36.4299H2.58379ZM18.9797 40.1352L17.8297 42.2957C18.1824 42.8594 19.2519 43.3812 19.4589 43.9831C19.6659 44.585 19.3439 45.0686 19.3286 45.6601C19.3209 46.0219 19.5586 46.3837 19.5356 46.7073C19.4781 47.5423 17.7875 48.6173 17.8258 48.9722L19.1446 50.9379C19.4551 51.0666 21.0997 50.3951 21.7207 50.5308C21.8779 50.5656 24.3927 51.9573 24.5 52.0686C24.9869 52.5557 25.1172 54.0517 25.5465 54.2848L28.1725 54.1978C28.4255 53.669 28.5789 52.4896 28.9469 52.086C29.0619 51.9608 31.8565 50.5274 32.0329 50.5204C32.6424 50.4995 33.7043 50.9344 34.3828 50.9692L35.7705 48.8226C35.2837 48.1615 34.2371 47.7127 34.0915 46.8812C33.9995 46.3559 33.9956 44.6128 34.1221 44.1153C34.31 43.3638 35.6172 42.8768 35.6172 42.1427C35.6172 41.6243 34.701 40.7197 34.471 40.1943C34.1605 40.0169 32.6846 40.5805 32.2092 40.591C32.0214 40.5944 29.1884 39.2759 29.0427 39.1506C28.391 38.587 28.7552 36.8961 27.5975 36.7674C26.9266 36.6909 26.0756 36.8196 25.3779 36.7952C25.167 37.4215 24.9715 38.6044 24.5038 39.0775C24.3927 39.1889 21.8434 40.5353 21.6862 40.5701C21.0767 40.7058 19.2097 39.9821 18.9836 40.1317L18.9797 40.1352Z" fill="#FAF3E7"/>
<path d="M15.8056 7.43835C16.5033 7.25048 16.971 7.60187 17.1473 8.1968L14.7015 11.1923C14.4063 14.1287 15.081 17.6531 14.7015 20.5164C14.575 21.4731 13.724 22.4264 12.6659 22.5378C10.5077 22.7709 4.35487 22.7674 2.19276 22.5378C0.862533 22.3951 0.260671 21.2644 0.153333 20.165C-0.0460099 18.1053 -0.061344 13.9374 0.164833 11.8916C0.30284 10.6322 0.904702 9.67195 2.38827 9.51191C5.09857 9.21618 9.40744 9.47364 12.2864 9.50843C12.6736 9.51191 13.0186 9.68239 13.402 9.66499C14.1917 9.37274 15.1845 7.60535 15.8094 7.43835H15.8056ZM11.9836 11.2758H2.39211L2.10076 11.5402V20.5094C2.10076 20.7321 2.70645 20.9269 2.9633 20.9582C4.86472 21.1913 9.69112 21.1009 11.7037 20.9582C12.0756 20.9304 12.4052 20.8539 12.7618 20.7738V13.2102C11.5887 13.8469 8.11171 18.4741 7.19167 18.6377C6.83132 18.7003 6.74698 18.655 6.4518 18.4985C6.17195 18.3489 3.95235 15.8926 3.82584 15.5899C3.52683 14.8906 4.25136 14.2435 5.0679 14.4731C5.53175 14.6019 6.63581 16.4562 7.03066 16.3727L11.9874 11.2793L11.9836 11.2758Z" fill="#FAF3E7"/>
<path d="M54.7618 7.43836C55.0876 7.35138 55.4326 7.36877 55.7087 7.56708C56.9775 8.48557 53.6731 10.3713 53.4699 11.3732C52.9293 14.0313 53.8877 18.0914 53.4699 20.8713C53.3242 21.8419 52.431 22.4299 51.4266 22.5343C49.1418 22.7709 43.6561 22.7465 41.3368 22.5447C39.9452 22.4229 39.2437 21.7863 39.1095 20.5233C38.8872 18.4567 38.8642 13.5825 39.121 11.5437C39.2629 10.3956 40.1062 9.65108 41.3483 9.52235C44.1123 9.23358 48.3291 9.4806 51.2388 9.51191C51.626 9.51539 51.971 9.68587 52.3543 9.66847C52.799 9.57454 54.0526 7.62971 54.7618 7.44183V7.43836ZM50.7481 11.2758H41.057V20.6869L41.3483 20.9513H51.2311C51.2656 20.9513 51.7141 20.5442 51.7141 20.5129V13.2137L46.1479 18.6411C45.7798 18.7316 45.4195 18.6029 45.1358 18.3906C44.8905 18.2097 42.6862 15.7222 42.6364 15.5482C42.5482 15.2455 42.6632 14.9185 42.8472 14.6645C44.1468 13.5825 45.2815 16.505 45.9754 16.3727L50.7442 11.2793L50.7481 11.2758Z" fill="#FAF3E7"/>
<path d="M35.1878 0.0485848C35.5137 -0.0383934 35.8587 -0.0209977 36.1347 0.177312C37.4496 1.12711 34.0838 3.07194 33.8921 3.98C33.5969 6.979 34.2716 10.5486 33.8921 13.478C33.7464 14.6052 32.7919 15.0575 31.6648 15.1515C29.3532 15.3498 23.8368 15.3915 21.575 15.1515C20.4518 15.0332 19.6659 14.0938 19.5433 13.1231C19.2864 11.0879 19.3439 6.58586 19.5356 4.49839C19.6583 3.17632 20.241 2.28914 21.7705 2.1291C24.5345 1.84033 28.7475 2.08735 31.661 2.11866C32.0482 2.12214 32.3932 2.29262 32.7766 2.27523C33.3286 2.16041 34.4441 0.246895 35.184 0.0485848H35.1878ZM31.1742 3.88954H21.483V13.3876C21.8395 13.4676 22.1654 13.5441 22.5411 13.5719C24.5537 13.7146 29.3801 13.805 31.2815 13.5719C31.5383 13.5406 32.144 13.3458 32.144 13.1231V5.82393C30.8483 6.44322 27.5323 11.0148 26.5778 11.2514C26.2558 11.3314 25.8686 11.2375 25.6117 11.0461C25.2092 10.2355 22.3226 8.13407 23.2771 7.27473C24.5537 6.12314 25.8187 9.06996 26.4014 8.97602L31.1742 3.88606V3.88954Z" fill="#FAF3E7"/>
<path d="M25.5005 40.3405C33.8384 39.0567 35.0038 49.9185 27.7317 50.8057C19.6736 51.7903 18.7229 41.3842 25.5005 40.3405ZM26.4858 41.9235C21.8434 42.2192 21.667 48.4712 25.8571 49.0835C32.2935 50.0229 32.1594 41.5616 26.4858 41.9235Z" fill="#FAF3E7"/>
</g>
<defs>
<clipPath id="clip0_200_766">
<rect width="56" height="56" fill="white"/>
</clipPath>
</defs>
</svg>
