<svg width="56" height="56" viewBox="0 0 56 56" fill="none" xmlns="http://www.w3.org/2000/svg">
<g clip-path="url(#clip0_200_759)">
<path d="M54.2487 1.81524C56.4129 3.98105 56.5152 7.38728 54.7209 9.81299L42.5663 21.973C42.5545 25.2257 42.0981 28.183 40.414 30.9946C39.993 31.6995 37.8918 34.1173 37.8918 34.5426C37.8918 35.9917 40.2291 35.212 41.2285 35.3026C43.8648 35.5428 45.8912 37.3621 46.7412 39.8075C51.0458 39.902 54.3668 43.9029 52.9975 48.1912C52.8519 48.644 52.4505 49.1362 52.3679 49.534C52.2145 50.2782 52.423 51.0934 52.2577 51.8888C51.8525 53.8617 49.1256 55.8384 47.1661 55.996H8.88843C6.75971 55.7991 3.9542 53.6805 3.72205 51.4714C3.53318 49.6915 3.58433 49.8411 3.05707 48.1912C1.69169 43.9068 5.00085 39.9059 9.31339 39.8075C10.1672 37.3306 12.3078 35.4365 14.9756 35.2829C15.9199 35.2278 18.1195 35.9681 18.1706 34.5426C18.1824 34.2 15.8766 31.416 15.4635 30.6835C14.1138 28.2893 13.3938 25.3044 13.5787 22.548C13.6692 21.1855 14.1847 19.8309 14.3224 18.5274C12.4258 16.8657 10.5096 15.2157 8.64841 13.5106C7.90867 12.8333 6.7479 11.3448 6.01603 10.8841C5.28416 10.4234 3.85189 10.3682 2.95476 10.0059C1.68776 9.49403 0.330253 8.15122 0.121709 6.75723C-0.0356828 5.70583 -0.0396176 1.91369 0.102035 0.846534C0.172861 0.30705 0.298775 0.177102 0.841776 0.10622C1.96319 -0.0434174 5.46123 -0.0276661 6.60232 0.10622C8.0818 0.287361 9.45504 1.61441 9.99411 2.95722C10.3718 3.89442 10.4309 5.32386 10.9463 6.11142C11.4146 6.82811 12.8272 7.92283 13.4961 8.65527C14.9323 10.2265 16.3095 11.8607 17.7653 13.4201C22.1644 8.90335 28.7395 7.90708 34.4331 10.5494C34.8384 10.7384 35.7985 11.5181 36.1251 11.4354L46.6349 1.06705C49.0548 -0.441139 52.2027 -0.228496 54.2448 1.81524H54.2487ZM1.99861 1.75617L1.75071 2.00426V5.78458C1.75071 6.48946 2.46291 7.68656 3.07281 8.0764C3.49776 8.34812 5.35105 8.87972 5.8547 8.92698C6.07112 8.94667 6.07112 8.97029 6.26786 8.84035C6.48427 8.69858 8.68776 6.49339 8.82548 6.28075C8.88843 6.18624 8.97106 6.11536 8.93958 5.98541C8.5343 4.62292 8.52643 2.98872 7.12171 2.2169C6.88562 2.08695 5.97668 1.75617 5.77207 1.75617H1.99861ZM49.0076 1.96094C48.3977 2.06333 46.4303 3.11079 46.6034 3.78022C46.7884 4.48903 51.4314 8.3048 52.0807 9.32864L52.5489 9.46646C55.9919 6.44614 53.7018 1.16944 49.0076 1.96488V1.96094ZM45.061 5.06002C44.9036 5.0994 43.6641 6.2335 43.8688 6.52096L49.4562 12.1206C49.8851 12.4828 51.1914 11.1007 50.9435 10.636L45.5253 5.19784C45.3915 5.06002 45.2459 5.01277 45.0571 5.06002H45.061ZM9.90361 7.68656L7.67651 9.91538L9.08517 11.2779L11.265 9.21444L9.90361 7.68656ZM38.8676 23.1229L48.382 13.6484L42.4208 7.68262L32.9536 17.2043H35.4994C36.5382 17.2043 35.7749 19.6103 36.2274 19.9254C36.8058 20.1616 38.8637 19.634 38.8637 20.5712V23.1189L38.8676 23.1229ZM21.6214 21.6423C21.6804 21.2406 21.5624 20.9965 21.3696 20.6657C20.3505 18.9251 17.4033 15.7276 15.9593 14.0816C14.9126 12.8845 13.7676 11.7662 12.7524 10.5415C12.5596 10.3879 12.4848 10.5218 12.3392 10.6242C11.753 11.0298 11.1431 11.9906 10.5292 12.4435L10.4702 12.664C12.6973 14.6998 14.9323 16.7751 17.2774 18.681C18.0959 19.3465 19.9688 21.0516 20.744 21.4572C21.0391 21.6108 21.2909 21.6856 21.6254 21.6423H21.6214ZM40.6737 23.9459L38.1397 26.2574C35.0824 26.726 31.5489 28.4705 28.5624 28.8327C27.3387 28.9824 27.1026 28.7422 27.2521 27.5214C27.622 24.5011 29.373 20.9059 29.8727 17.8186L34.7597 12.853C29.9042 9.59247 22.8688 10.4588 19.0087 14.8495C19.9767 16.8499 25.5484 20.8429 22.613 23.0481C20.3938 24.7138 17.8637 21.0831 16.1206 20.0081C15.8097 19.8702 15.7074 20.6342 15.6563 20.8508C14.468 26.0133 16.3685 28.6437 19.0677 32.5107C20.559 34.6489 21.6411 36.9486 21.649 39.6224L21.7788 39.8193H34.2797C34.4803 38.9687 34.4961 38.1221 34.6771 37.2597C35.4916 33.4085 38.4191 31.6286 39.7687 28.2184C40.3156 26.8323 40.6029 25.4383 40.6737 23.9498V23.9459ZM34.4331 19.0118H31.5607C31.2263 19.5001 30.6951 21.087 30.9744 21.5635C31.9267 22.1502 33.8035 24.824 34.6062 25.1784C34.9643 25.3359 36.676 24.828 37.0616 24.5169V21.6423C34.3977 21.8313 34.2442 21.6816 34.4331 19.0118ZM32.627 25.9148L30.1639 23.4497L29.3415 26.7339L32.6231 25.9109L32.627 25.9148ZM24.4151 48.7621C22.676 48.8685 20.2521 48.9709 19.9767 46.7105C19.7563 44.8676 20.0908 42.5404 19.9885 40.6187C19.957 40.0674 19.6029 36.4407 19.0795 36.4367C17.9581 37.8543 16.4 36.9841 14.9756 37.0943C13.6535 37.1967 12.1071 38.1772 11.4697 39.335C10.9896 40.2052 11.1234 41.5638 10.0571 41.7016C8.99074 41.8394 8.42806 41.5047 7.27517 42.0403C5.23301 42.9932 4.0565 45.4307 4.79624 47.6044C4.97725 48.136 5.55173 48.7818 5.62255 49.2426C5.69338 49.7033 5.42975 50.105 5.42581 50.5106C5.4022 52.322 7.03908 53.6293 8.60906 54.1412C21.5152 54.4838 34.5394 54.4838 47.4494 54.1412C48.8581 53.649 50.4005 52.6055 50.5343 50.987C50.5815 50.4082 50.3651 49.6757 50.432 49.2426C50.5068 48.7661 51.1206 48.073 51.3016 47.4824C51.9351 45.415 50.8688 43.1586 48.9997 42.1545C47.658 41.4338 47.0402 41.9142 45.8519 41.6898C45.0216 41.5323 45.0335 40.1225 44.5888 39.3389C43.9514 38.2166 42.5231 37.2518 41.2324 37.1101C40.1779 36.9959 39.1982 37.429 38.1672 37.2164C37.5731 37.0943 37.2819 36.543 36.735 36.4328C36.4556 37.7086 36.1605 38.9845 36.0779 40.2958C35.9519 42.312 36.3572 44.9779 36.0661 46.8562C35.7395 48.9748 33.2448 48.8567 31.6433 48.7582C31.5332 53.6333 24.5292 53.6411 24.4151 48.7582V48.7621ZM21.8693 41.5283C21.5703 41.5283 21.5939 42.5285 21.6136 42.7688C21.6254 42.9223 21.6018 43.0798 21.649 43.2255L21.8693 43.4973H34.1852C34.5197 43.2452 34.4764 42.6624 34.441 42.2568C34.4292 42.1033 34.4528 41.9457 34.4056 41.8L34.1852 41.5283H21.8693ZM21.8693 45.1472C21.4758 45.1472 21.3853 46.8405 22.731 47.0807C25.9654 46.9626 29.5186 47.376 32.7175 47.1279C33.1661 47.0925 33.7917 47.0886 34.1144 46.7184C34.382 46.4152 34.6299 45.1472 34.1892 45.1472H21.8733H21.8693ZM29.5894 48.7621H26.2212C26.2605 50.231 27.3151 50.8531 28.7277 50.5263C29.3376 50.3845 30.2583 48.959 29.5894 48.7621Z" fill="#FAF3E7"/>
<path d="M49.9955 26.289C51.0815 26.1394 52.0613 26.3481 52.9072 27.0687C53.4188 27.5098 53.6037 28.0965 53.9893 28.4509C54.3749 28.8053 54.855 28.8841 55.2917 29.4472C56.24 30.6758 56.2322 32.6644 55.2917 33.8851C54.855 34.4482 54.371 34.5349 53.9893 34.8814C53.5644 35.2673 53.4109 35.8619 52.8128 36.3344C51.4947 37.378 49.602 37.3662 48.3153 36.2636C47.8038 35.8225 47.6189 35.2358 47.2333 34.8814C46.8477 34.527 46.3676 34.4482 45.9309 33.8851C45.0101 32.6919 44.9904 30.7506 45.86 29.5417C46.3243 28.8919 46.887 28.7935 47.3159 28.3682C48.2445 27.4546 48.2524 26.5253 49.9955 26.2851V26.289ZM53.7611 30.4041C53.5132 30.1402 52.9545 30.0575 52.6515 29.7898C52.018 29.2266 52.0101 28.1516 50.7549 28.061C49.3187 27.9587 49.3108 29.0455 48.6498 29.711C48.1343 30.2308 47.2529 30.2347 47.0877 31.2704C46.8122 33.007 47.8786 32.8573 48.6498 33.6331C49.2046 34.1883 49.2125 35.094 50.326 35.2555C51.8645 35.4799 51.8724 34.3301 52.5689 33.6331C52.982 33.2196 53.7336 33.1487 54.0169 32.4517C54.2529 31.8729 54.1939 30.8648 53.7611 30.408V30.4041Z" fill="#FAF3E7"/>
<path d="M4.83193 26.289C5.91793 26.1394 6.8977 26.3481 7.74368 27.0687C8.2552 27.5098 8.44013 28.0965 8.82574 28.4509C9.21135 28.8053 9.6914 28.8841 10.1282 29.4472C11.0764 30.6758 11.0686 32.6644 10.1282 33.8851C9.6914 34.4482 9.20742 34.5349 8.82574 34.8814C8.40079 35.2673 8.24733 35.8619 7.64924 36.3344C6.33108 37.378 4.43845 37.3662 3.15177 36.2636C2.64025 35.8225 2.45531 35.2358 2.0697 34.8814C1.68409 34.527 1.20405 34.4482 0.767285 33.8851C-0.153457 32.6919 -0.173131 30.7506 0.696458 29.5417C1.16076 28.8919 1.72344 28.7935 2.15233 28.3682C3.08094 27.4546 3.08881 26.5253 4.83193 26.2851V26.289ZM2.30185 32.9282C2.58909 33.2117 3.09668 33.2787 3.40753 33.5504C4.04103 34.1096 4.0489 35.1885 5.3041 35.2791C6.7403 35.3815 6.74817 34.2946 7.40922 33.6292C7.92468 33.1094 8.80607 33.1054 8.97133 32.0698C9.24677 30.3332 8.18044 30.4828 7.40922 29.7071C6.85441 29.1518 6.84654 28.2461 5.733 28.0847C4.19449 27.8602 4.18662 29.0101 3.49016 29.7071C3.15964 30.0378 2.68746 30.0851 2.37268 30.3489C1.73524 30.8845 1.72344 32.3494 2.30579 32.9243L2.30185 32.9282Z" fill="#FAF3E7"/>
<path d="M18.7493 3.07544L23.0303 7.34799C23.1799 7.63939 22.1883 8.84044 21.7004 8.50572C20.3468 7.57639 18.9027 5.35939 17.5216 4.30405L18.7493 3.07544Z" fill="#FAF3E7"/>
<path d="M37.3097 3.07544L38.5374 4.30405C37.1563 5.35939 35.7083 7.57639 34.3586 8.50572C33.8746 8.84043 32.8831 7.63546 33.0287 7.34799L37.3097 3.07544Z" fill="#FAF3E7"/>
<path d="M28.8499 0.933289H27.2091V7.1787H28.8499V0.933289Z" fill="#FAF3E7"/>
</g>
<defs>
<clipPath id="clip0_200_759">
<rect width="56" height="56" fill="white"/>
</clipPath>
</defs>
</svg>
