<svg width="56" height="56" viewBox="0 0 56 56" fill="none" xmlns="http://www.w3.org/2000/svg">
<g clip-path="url(#clip0_200_745)">
<path d="M26.0411 0.0692945C48.2129 -1.4588 63.3775 22.5024 52.269 41.9126C41.7658 60.2678 15.3753 60.8103 4.23073 42.8047C-6.88074 24.8564 5.107 1.513 26.0411 0.0692945ZM26.5199 2.77285C6.447 4.03571 -4.20375 26.9752 7.82313 43.1905C18.6967 57.8506 41.3533 56.2049 50.1039 40.2247C59.6134 22.8611 46.2255 1.53711 26.5199 2.77586V2.77285Z" fill="#FAF3E7"/>
<path d="M25.9328 21.9961L25.6015 24.2084C30.3744 22.7436 36.9087 24.7238 37.502 30.3539C38.4716 39.5255 27.2427 41.3158 20.8829 37.5996C19.8019 36.9666 17.8055 35.6495 18.6908 34.239C18.7992 34.0642 20.4252 32.2889 20.5878 32.1623C21.8766 31.1828 22.4157 32.2859 23.4214 32.8314C25.2282 33.811 27.1885 34.7785 29.2572 33.8381C31.8137 32.6717 30.9074 29.1152 27.8841 28.8439C25.9177 28.6691 24.5898 29.941 23.1504 29.7662C22.509 29.6878 20.0428 28.6028 19.8019 28.0241C19.6363 27.6293 19.6995 26.9692 19.7387 26.5352C19.8712 25.0825 20.9462 18.6807 21.4611 17.5987C21.8255 16.8301 22.3253 16.6403 23.1323 16.5649C25.6829 16.3268 31.5969 16.2906 34.1083 16.5709C36.0566 16.7879 36.0927 18.4908 35.915 20.1305C35.7825 21.3632 35.3881 21.8786 34.1143 21.9871C31.4976 22.2101 28.5857 21.7942 25.9388 21.9961H25.9328Z" fill="#FAF3E7"/>
</g>
<defs>
<clipPath id="clip0_200_745">
<rect width="56" height="56" fill="white"/>
</clipPath>
</defs>
</svg>
