<svg width="56" height="56" viewBox="0 0 56 56" fill="none" xmlns="http://www.w3.org/2000/svg">
<g clip-path="url(#clip0_200_752)">
<path d="M45.4717 17.245H53.4585C54.2786 17.245 55.6865 18.494 55.714 19.3953C55.789 25.0818 55.6689 30.7709 55.7215 36.4575C55.744 38.8971 56.2366 41.6516 55.8565 44.0912C55.704 45.066 54.6612 46.607 53.626 46.607H45.4717V52.8368C45.4717 53.9183 44.1064 55.5532 43.0712 55.8629L11.5867 56C10.609 56.0051 8.81609 54.2534 8.81609 53.3496V34.3149H2.00458C1.75703 34.3149 0.856831 33.5457 0.67179 33.2791C-0.263416 31.9209 0.0441515 27.359 0.0641559 25.5159C0.069157 25.1123 0.241695 24.7391 0.246696 24.3355C0.294207 19.0855 -0.238411 12.6628 0.234193 7.5931C0.331715 6.53702 1.1869 5.12554 2.34216 5.12554H8.81609V2.65036C8.81359 1.7466 10.609 -0.00506628 11.5867 1.10136e-05L43.0712 0.137098C44.1089 0.446813 45.4717 2.0817 45.4717 3.16316V17.2476V17.245ZM43.7913 17.245V3.16316C43.7913 2.67574 42.7886 1.62474 42.1985 1.70852H11.9218C10.1864 1.97508 10.4815 3.75974 10.4965 5.12554H25.0422C25.6023 5.12554 26.8626 6.08514 26.9851 6.74011L27.1501 32.1875C27.2527 32.8729 25.8999 34.3174 25.3798 34.3174H10.499V53.1821C10.499 53.3598 11.4967 54.492 11.9243 54.2966L42.6236 54.2153C43.0837 54.1036 43.7913 53.0602 43.7913 52.6693V46.6095H30.9285C30.2533 46.6095 28.703 45.1574 28.8255 44.3044L28.9055 19.1185C29.0981 18.3519 30.3709 17.245 31.096 17.245H43.7913ZM1.91957 7.258V24.4142H25.4598V7.43063C25.4598 7.36462 25.2647 7.04729 25.1772 6.99144L2.41468 6.9102L1.91957 7.26054V7.258ZM54.0461 36.5362V19.5501C54.0461 19.2861 53.2384 18.9815 52.9558 18.9485C50.6703 18.6743 47.8897 19.1693 45.5467 18.9434C41.1882 19.3673 35.8971 18.4306 31.5936 18.9485C31.3136 18.9815 30.5034 19.2861 30.5034 19.5501V36.5362H54.0436H54.0461ZM25.4623 26.1227H1.91957V32.1824C1.91957 32.2129 2.17962 32.4845 2.25964 32.5201L25.1797 32.449C25.2672 32.3931 25.4623 32.0758 25.4623 32.0098V26.1201V26.1227ZM54.0461 38.2422H30.5059V44.3019C30.5059 44.3324 30.7659 44.604 30.846 44.6395H53.7085C53.7885 44.6015 54.0486 44.3298 54.0486 44.3019V38.2422H54.0461Z" fill="#FAF3E7"/>
<path d="M24.4054 49.7146C24.8956 49.5724 28.949 49.5902 29.5716 49.6892C30.7444 49.8771 30.6743 51.1971 29.7466 51.3824C29.139 51.5017 24.9906 51.4992 24.3729 51.3824C24.1979 51.3494 24.0479 51.2961 23.9328 51.1489C23.5528 50.6792 23.8653 49.8745 24.4029 49.7171L24.4054 49.7146Z" fill="#FAF3E7"/>
<path d="M43.1221 26.8044L43.4672 26.7003C43.9848 25.2889 45.0551 23.7251 46.6429 24.8522L50.2712 31.0666C50.6113 32.3079 49.9887 33.1862 48.7609 33.3005C44.595 33.6863 39.8614 32.9933 35.633 33.2954C34.4977 33.1786 33.8826 32.0134 34.3402 30.9498L39.0187 23.0677C41.4543 21.9355 42.0919 25.2736 43.1246 26.8044H43.1221ZM36.0555 31.5844H48.6659L45.5552 26.2941C44.815 27.1318 44.2699 29.7643 42.8971 29.3328C42.372 29.1677 40.8166 25.7458 40.2315 25.0401C40.119 24.903 40.0739 24.6999 39.8389 24.7558L36.053 31.587L36.0555 31.5844Z" fill="#FAF3E7"/>
<path d="M12.4628 10.9817C13.0804 11.5554 14.0356 13.8451 14.5332 14.6829C15.4134 13.5913 16.4462 11.1289 18.134 12.8196C19.3693 14.0558 20.5146 17.4473 21.6848 18.9476C21.9849 20.4123 21.1972 21.0571 19.8369 21.179C16.7262 21.4557 10.6599 21.4557 7.54918 21.179C6.16138 21.0546 5.25367 20.3362 5.75128 18.8257C6.04385 17.9423 9.37959 12.1951 10.0222 11.3853C10.6649 10.5755 11.6151 10.1973 12.4628 10.9817ZM20.082 19.4629L16.9713 14.1752C16.2861 14.9215 15.561 17.5996 14.3157 17.2163C13.8456 17.0716 11.8952 13.18 11.5051 12.4642L7.30413 19.4629H20.0845H20.082Z" fill="#FAF3E7"/>
<path d="M38.6636 42.3376C38.051 42.1625 38.0535 40.9719 38.9087 40.7079C39.4788 40.5327 44.8625 40.52 45.5227 40.6673C45.8677 40.7434 46.2678 41.0303 46.3203 41.4085C46.4454 41.6624 46.0803 42.3376 45.8927 42.3376H38.6611H38.6636Z" fill="#FAF3E7"/>
<path d="M10.2823 28.5483C11.145 28.3579 16.0161 28.3757 16.9588 28.5229C17.2163 28.5635 17.4639 28.6473 17.6439 28.8504C17.8015 29.254 17.8415 29.7617 17.4614 30.0359C16.6862 30.5944 11.5301 29.9978 10.2473 30.2136C9.4321 30.0587 9.34709 28.7539 10.2798 28.5483H10.2823Z" fill="#FAF3E7"/>
</g>
<defs>
<clipPath id="clip0_200_752">
<rect width="56" height="56" fill="white"/>
</clipPath>
</defs>
</svg>
