<svg width="56" height="56" viewBox="0 0 56 56" fill="none" xmlns="http://www.w3.org/2000/svg">
<g clip-path="url(#clip0_200_772)">
<path d="M26.1461 5.92187C30.4615 5.34917 35.2379 6.50287 39.0174 8.65256C48.3542 13.9604 52.4744 25.2193 49.0852 35.4159H53.5543C53.7786 35.4159 54.8667 36.0259 55.0786 36.25C55.4648 36.6609 55.768 37.466 55.8303 38.0262C55.4316 42.8319 56.3578 48.4925 55.8303 53.1944C55.6517 54.8005 54.63 55.672 53.0517 55.8131C46.5101 56.3982 39.1005 55.3607 32.4676 55.8048C31.9069 55.7425 31.1011 55.4396 30.6899 55.0536C30.4656 54.842 29.8551 53.7547 29.8551 53.5306V50.0736C14.0972 51.8415 1.4169 35.4408 7.08626 20.5838H2.44694C2.22265 20.5838 1.13447 19.9737 0.922645 19.7496C0.536381 19.3388 0.233184 18.5337 0.170884 17.9734C0.569608 13.1678 -0.356596 7.50716 0.170884 2.80522C0.349479 1.19503 1.37121 0.323527 2.94534 0.182428C9.48691 -0.402721 16.8965 0.634777 23.5295 0.190728C24.0902 0.252978 24.8959 0.555927 25.3071 0.941876C25.5314 1.15353 26.142 2.24082 26.142 2.46492V5.92187H26.1461ZM17.8809 22.3517V19.1479C19.1394 18.0813 22.7279 19.2558 23.8784 18.5669C24.0113 18.488 24.2106 18.2473 24.2522 18.0979L24.2979 2.95462C24.2979 2.52717 23.949 2.12047 23.5253 2.04162L3.11148 2.02502C2.53831 1.96692 2.03575 2.39022 2.01498 2.95462C2.37633 7.66486 1.56642 13.0059 2.01498 17.6373C2.06898 18.2017 2.18112 18.5503 2.78751 18.7163L11.5179 18.7578L17.5486 22.5135L17.885 22.3434L17.8809 22.3517ZM26.1461 7.85991V18.3096C26.1461 18.3511 26.0091 18.4092 26.0174 18.4797L26.2416 18.7204C26.4742 18.8076 27.1595 18.708 27.1595 18.4797V7.85991C27.1595 7.58601 26.2707 7.44907 26.1461 7.85991ZM28.8458 7.77691V18.4797C28.9953 18.7121 29.1864 18.7246 29.4356 18.7495C29.8509 18.7868 31.4209 18.6001 31.9442 18.542C33.2526 18.3967 34.8973 18.0606 36.1682 17.7078C36.5628 17.5958 38.0331 17.2762 38.1079 16.9442C36.5711 12.9312 33.5018 8.20436 28.8458 7.77691ZM43.3494 14.6825C41.2727 12.0846 38.382 10.1051 35.2545 8.95551C37.2273 11.0886 38.9759 13.5413 39.8149 16.3632L43.3494 14.6825ZM42.0868 27.1574H48.159C48.483 27.1574 48.267 25.4185 48.2255 25.0699C47.8351 21.9367 46.3689 18.5461 44.4501 16.0644L40.5334 18.2971L42.0868 27.1532V27.1574ZM28.8458 20.5838V26.9042L29.0992 27.1574H39.7277C40.1305 26.7424 40.0143 25.8045 39.9769 25.2193C39.8523 23.0862 39.221 20.978 38.7973 18.8989C35.5618 19.8658 32.2391 20.5091 28.8458 20.5838ZM27.1554 20.5838H19.563V24.713C19.563 24.7794 19.2307 25.0658 19.1061 25.1031C18.155 25.3895 16.9962 24.215 16.1905 23.7876C16.3358 24.103 16.0202 24.5636 16.0202 24.713V27.1574H26.8979L27.1512 26.9042V20.5838H27.1554ZM7.84217 27.1574H13.9144C14.3921 26.6469 14.1055 25.7422 14.1678 25.0533C14.2093 24.601 14.5706 23.0489 14.4294 22.7791C12.7805 21.725 11.2978 20.2144 9.18372 20.5755L8.9179 20.6875C8.21598 22.6463 7.80895 24.6798 7.59713 26.7548C7.57221 26.9001 7.73419 27.1283 7.84217 27.1615V27.1574ZM7.84217 28.8423C7.51821 28.8423 7.73419 30.5811 7.77572 30.9297C8.16614 34.063 9.63228 37.4535 11.5511 39.9352L15.4678 37.6984L13.9144 28.8423H7.84217ZM27.1554 35.4159V29.0954L26.902 28.8423H16.2735C15.8707 29.2573 15.987 30.1952 16.0243 30.7803C16.1489 32.9134 16.7595 35.0299 17.2039 37.1008C20.4394 36.1338 23.7621 35.4906 27.1554 35.4159ZM39.9769 28.8423H29.0992L28.8458 29.0954V35.4159H36.4382V31.2866C36.4382 31.2202 36.7705 30.9339 36.8951 30.8965C37.8462 30.6102 39.005 31.7846 39.8107 32.2121C39.6654 31.8967 39.981 31.436 39.981 31.2866V28.8423H39.9769ZM48.159 28.8423H42.0868C41.6092 29.3527 41.8957 30.2574 41.8334 30.9463C41.7919 31.3987 41.4306 32.9508 41.5718 33.2205C43.2954 34.3452 44.8197 35.8641 47.0459 35.3951C47.7769 33.399 48.1881 31.3447 48.3833 29.2241L48.1632 28.8423H48.159ZM38.1203 33.6438V36.8476C36.8618 37.9142 33.2733 36.7397 32.1228 37.4286C31.9899 37.5075 31.7906 37.7482 31.749 37.8976L31.7033 53.0409C31.7033 53.4683 32.0522 53.875 32.4759 53.9539L52.8897 53.9705C53.4629 54.0286 53.9655 53.6053 53.9862 53.0409C53.6249 48.3306 54.4348 42.9896 53.9862 38.3582C53.9322 37.7938 53.8201 37.4452 53.2137 37.2792L44.4833 37.2377L38.4526 33.482L38.1162 33.6521L38.1203 33.6438ZM27.1554 48.2227V37.5199C27.0059 37.2875 26.8148 37.2751 26.5656 37.2502C26.1503 37.2128 24.5803 37.3996 24.057 37.4577C21.9637 37.6901 19.8787 38.2711 17.8767 38.8728C19.2847 42.973 22.487 47.7828 27.1554 48.2227ZM28.8458 37.5199V48.1397C28.8458 48.4759 29.8592 48.4759 29.8592 48.1397V37.6901C29.8592 37.6486 29.9963 37.5905 29.988 37.5199L29.7637 37.2792C29.4937 37.217 28.933 37.2419 28.8458 37.5199ZM16.1863 39.6323C15.8084 39.3625 13.1793 41.1636 12.6518 41.396C14.8074 43.9192 17.6275 45.8738 20.7467 47.04C18.7739 44.9069 17.0253 42.4543 16.1863 39.6323Z" fill="#FAF3E7"/>
<path d="M15.326 13.1929L11.0771 13.1638C10.3959 14.0104 10.7448 16.1186 9.20389 15.8696C8.41059 15.7409 8.58503 14.9234 8.68056 14.3424C9.01283 12.3546 10.2464 8.83536 10.9192 6.80601C11.0604 6.37856 11.3844 5.06302 11.7499 4.93852C12.1569 4.80157 14.6573 4.73517 14.8816 5.29541L17.7183 14.7781C17.8928 15.6579 17.1535 16.1684 16.3602 15.7824C15.8161 15.521 15.6541 13.7572 15.326 13.1929ZM14.8442 11.3129C14.2129 10.0513 14.0675 8.23361 13.5068 7.00106C13.4154 6.80186 13.3573 6.55286 13.0748 6.59436C12.7426 6.67321 11.833 10.7319 11.4716 11.3129H14.8442Z" fill="#FAF3E7"/>
<path d="M41.7456 41.9896L42.082 40.4707C42.2689 40.0848 42.8753 40.0599 43.2284 40.1678C44.0424 40.4126 43.382 41.5622 43.9386 41.9896H48.8313C48.9517 41.9896 49.2217 42.4046 49.2549 42.5872C49.5581 44.3385 47.5146 43.3093 46.7961 43.8281C46.2229 44.2431 45.2718 47.1481 44.1961 47.6336C44.8814 48.5508 47.4814 49.1152 47.415 50.3311C47.2987 52.4435 43.6562 49.5219 42.9002 49.0944C42.1069 49.3725 39.0127 52.0409 38.3731 50.7544C37.6171 49.2272 40.8111 48.6421 41.4922 47.6336C40.4207 47.1481 39.4654 44.2431 38.8922 43.8281C38.1737 43.3093 36.1302 44.3385 36.4334 42.5872C36.4667 42.4046 36.7366 41.9896 36.8571 41.9896H41.7498H41.7456ZM44.5284 43.6745H41.1558C41.0146 44.2099 42.568 46.4384 42.9127 46.3637C43.2616 46.0359 44.8731 44.0231 44.5325 43.6745H44.5284Z" fill="#FAF3E7"/>
</g>
<defs>
<clipPath id="clip0_200_772">
<rect width="56" height="56" fill="white"/>
</clipPath>
</defs>
</svg>
