<svg xmlns="http://www.w3.org/2000/svg" width="76" height="65" fill="none"><path fill="#321000" d="M65.38 40.71c-1.541 3.133-3.97 7.039-7.242 8.725-2.702 1.392-7.31 2.867-8.421-1.108-1.32-4.726 9.093-16.517 12.313-20.056l-3.411-20.35-34.698 9.751 2.082 7.668c8.375-2.697 16.212-7.205 24.763-9.448 2.581-.674 7.552-2.264 7.973 1.631-2.417 2.62-5.33 2.545-8.04 3.53-7.774 2.826-15.54 5.583-23.667 7.16 3.848 9.346 6.424 22.45-1.158 30.702-2.704 2.946-9.586 7.576-11.813 2.043-2.227-5.534 7.525-15.8 11.852-18.716-1.46-5.198-3.248-10.313-4.594-15.546-.5-1.944-.462-5.177-1.09-6.772-.568-1.45-2.203-1.681-2.491-3.27 1.98-1.175 4.044-2.597 6.16-3.522 6.215-2.714 15.384-5.317 22.047-7.165 3.74-1.04 9.394-2.769 13.031-3.336.657-.102 1.209-.093 1.789.256.67.323.868.861 1.094 1.514 2.454 7.212 3.457 16.229 4.784 23.71.15.845 1.214 1.702 1.448 3.12.386 2.348-1.634 7.291-2.715 9.487l.003-.008Z"/></svg>