<svg xmlns="http://www.w3.org/2000/svg" width="80" height="48" fill="none"><path fill="#321000" d="M38.115 33.838c13.066 9.853 27.205 2.66 41.285.02 3.113 3.025-11.468 9.636-13.507 10.375-12.965 4.67-28.079 4.523-35.801-8.355-9.25 2.581-20.869 2.808-26.824-5.952C-.558 24.3-2.717 11.61 6.642 10.722c-.06 1.685-1.857.483-2.52 2.779-1.948 6.73 1.737 16.603 9.128 18.219 2.48.541 13.688 1.25 13.658-1.784-.01-1.714-1.436-4.335-1.466-6.316-.09-5.38 3.475-13.814 7.25-17.756C46.28-8.305 65.683 5.58 52.397 22.3c-4.108 5.173-9.952 6.976-14.28 11.528v.01Zm11.56-25.786C41.931.445 29.66 20.97 35.172 28.074c6.186-.838 20.366-14.248 14.501-20.022Z"/></svg>