<svg width="133" height="88" viewBox="0 0 133 88" fill="none" xmlns="http://www.w3.org/2000/svg">
<g filter="url(#filter0_d_276_513)">
<rect x="4.5" y="0.5" width="124" height="79" rx="4.5" stroke="#9747FF" stroke-dasharray="10 5" shape-rendering="crispEdges"/>
<g clip-path="url(#clip0_276_513)">
<path d="M36.673 30.0331C37.7252 31.1134 38.8442 34.5043 39.1665 36.0617C40.015 40.1464 40.9153 47.7916 38.0476 51.0996C34.4907 55.2002 26.9064 51.8054 23.4125 48.9666C16.4248 43.2968 21.0857 34.6896 29.1776 38.3919C29.3444 35.1548 32.6641 25.9325 36.673 30.0331Z" fill="#321000"/>
</g>
<g clip-path="url(#clip1_276_513)">
<path d="M101.256 29.6177C101.875 31.7416 100.958 36.7928 100.285 38.9712C98.5256 44.6868 94.3309 54.8756 88.2474 56.8752C80.7035 59.3523 73.1511 49.5145 70.5682 43.3943C65.3968 31.1638 77.5557 23.8897 85.5571 34.4861C88.0512 30.5772 98.8848 21.545 101.256 29.6177Z" fill="#321000"/>
</g>
</g>
<defs>
<filter id="filter0_d_276_513" x="0" y="0" width="133" height="88" filterUnits="userSpaceOnUse" color-interpolation-filters="sRGB">
<feFlood flood-opacity="0" result="BackgroundImageFix"/>
<feColorMatrix in="SourceAlpha" type="matrix" values="0 0 0 0 0 0 0 0 0 0 0 0 0 0 0 0 0 0 127 0" result="hardAlpha"/>
<feOffset dy="4"/>
<feGaussianBlur stdDeviation="2"/>
<feComposite in2="hardAlpha" operator="out"/>
<feColorMatrix type="matrix" values="0 0 0 0 0 0 0 0 0 0 0 0 0 0 0 0 0 0 0.25 0"/>
<feBlend mode="normal" in2="BackgroundImageFix" result="effect1_dropShadow_276_513"/>
<feBlend mode="normal" in="SourceGraphic" in2="effect1_dropShadow_276_513" result="shape"/>
</filter>
<clipPath id="clip0_276_513">
<rect width="20" height="24" fill="white" transform="translate(20 29)"/>
</clipPath>
<clipPath id="clip1_276_513">
<rect width="30.0952" height="34.3274" fill="white" transform="translate(80.1328 16) rotate(29.4392)"/>
</clipPath>
</defs>
</svg>
