<svg xmlns="http://www.w3.org/2000/svg" width="140" height="111" fill="none"><g fill="#FAF3E7" clip-path="url(#a)"><path d="M91.887 19.736c5.826-2.17 9.552 2.19 12.182 6.814 5.797 10.203 10.624 39.666 10.912 51.84.163 6.882-.758 13.338-9.228 13.697-8.074.344-13.053-9.458-19.36-12.684-4.713-2.41-9.694 1.28-14.295 2.697-4.959 1.526-11.178 2.143-15.706 4.566-5.667 3.033-7.651 10.055-12.056 14.472-9.978 10.003-15.648 6.392-19.957-5.505-4.31-11.897-8.358-31.518-7.433-44.147.579-7.918 2.073-12.6 11.024-12.892 5.397-.175 6.283 1.993 10.562 3.37 8.513 2.738 31.76-3.632 39.13-8.889 5.294-3.773 7.991-11.023 14.224-13.343v.004ZM37.342 43.513c-.385-.328-5.43-2.671-6.089-2.814-3.646-.788-9.005-.276-10.967 3.341-5.625 10.377 1.485 37.165 5.234 47.996 3.027 8.737 5.765 17.605 15.93 9.072 5.575-4.68 7.046-12.303 13.238-15.87 4.889-2.819 11.867-3.708 17.329-5.362 7.749-2.35 10.789-6.273 18.315-.292 5.35 4.254 10.114 12.778 18.23 10.154a6.197 6.197 0 0 0 3.258-2.519c3.232-5.003.046-21.708-.921-27.747-1.472-9.208-4.519-32.42-13.187-37.463-7.52-4.375-13.422 9.988-18.8 12.682.723 5.878.247 16.15-4.89 19.998-4.222 3.162-19.594 7.102-24.76 6.35-3.627-.528-6.942-3.856-8.407-7.083-.989-2.179-2.268-9.384-3.518-10.446l.005.004Zm41.22-8.43c-9.025 5.76-19.796 7.714-30.267 9.105l-9.174.176c2.534 4.838 4.053 12.604 10.497 13.325 5.608.628 20.453-3.132 24.302-7.433 2.99-3.338 3.066-11.009 4.638-15.171l.004-.001Z"/><path d="M74.975 60.624c1.855-.846 6.385.181 7.922 1.506 4.917 4.23 1.166 12.93-5.364 11.346-5.296-1.285-7.167-10.753-2.558-12.852Zm1.165 1.99c-3.293 1.339-.74 10.01 3.774 8.486 2.453-.829 2.954-3.932 1.99-6.066-.688-1.523-4.303-3.01-5.763-2.417v-.003ZM55.281 71.009c5.473 4.287-.636 12.804-6.224 9.594-3.998-2.298-3.956-10.62.566-11.212 1.069-.14 4.838.976 5.658 1.618Zm-5.618.403c-2.47.515-2.29 7.295 1.347 7.678 3.382.355 5.41-4.187 2.105-6.46-.503-.346-2.959-1.317-3.452-1.218ZM92.629 34.575c5.6-2.372 6.102 6.794-.18 6.156-3.344-.34-2.922-4.84.18-6.156Zm1.595 1.841-2.025.838.225 1.395 1.792-.527.007-1.71.001.004ZM31.34 74.149c-2.362-3.2-1.904-5.395 1.745-6.986 2.267-.986 3.474-.671 3.944 1.98.652 3.663-2.708 4.729-5.69 5.006Zm3.676-5.538-4.618 1.312 1.016 3.169 3.791-1.7-.19-2.78ZM87.88 42.642l.686.152c2.096 2.518 1.728 7.609-2.512 6.612-1.526-.358-2.096-2.817-1.778-4.148.342-1.421 2.457-2.044 3.603-2.616Zm-.208 2.22c-1.67.17-1.748 1.545-1.29 2.88 1.669-.168 1.747-1.543 1.29-2.88ZM96.746 49.054c.213.083 1.295 2.365 1.38 2.865.49 2.842-1.189 4.748-4.058 4.688-4.03-.086-2.488-8.214 1.662-5.31-5.903 2.222.357 6.346.538 1.599.049-1.24-1.287-4.531.482-3.843h-.004ZM102.103 46.31c-1.666 2.5-5.569 1.772-5.791-1.477-.033-.464.789-2.798.97-2.96 1.59-1.42 7.202.861 4.821 4.437Zm-3.715-3.218c-.644.835-.888 2.08-.02 2.823 1.828 1.569 3.359-2.513.02-2.822ZM28.199 68.778c-.476.72-4.635 2.54-5.51 2.162-.798-.344-1.128-3.785-.698-4.558.759-1.355 5.122-2.922 6.05-.659.267.651.547 2.475.158 3.055Zm-1.966-2.46-3.193.753.139 2.434c1.451-.086 2.582-.885 3.808-1.54l-.75-1.647h-.004ZM27.01 62.343c-.5-2.036-1.634-6.077 1.126-6.883 3.115-.909 5.7 5.03 2.26 6.52-1.131.494-2.234.161-3.387.36v.003Zm.561-.848c4.362-.054 2.916-5.924.451-4.545-.892.498-.71 3.563-.45 4.545ZM35.864 64.986c-.661-1.41-1.226-2.632-.927-4.229 1.22.194.957 1.703 1.26 2.557.413 1.153 3.16.032 3.772-.544.516-.483.333-1.997.05-2.618-1.32-.419-2.591.252-3.832.357-.551.046-1.165-.071-.68-.613 1.723-.375 4.666-2.306 5.667.18 1.373 3.414-2.279 5.6-5.31 4.91ZM68.22 67.534l-.108 1.328c-1.456.922-7.012 2.641-7.803.454-.235-.654.088-.612.574-.863 2.21-1.155 4.948-.8 7.34-.92h-.004ZM35.993 51.173c-1.195 1.264-4.174-5.319-3.465-6.044 1.47-1.51 4.258 4.655 3.465 6.044ZM83.462 35.228c.733.303.432 4.684-1.38 4.223-1.81-.462-.153-4.864 1.38-4.223ZM67.651 72.145l.007 1.155c-6.688 2.951-6.208-1.224-.007-1.155Z"/></g><defs><clipPath id="a"><path fill="#fff" d="M0 24.601 121.793 0l17.353 85.908-121.793 24.601z"/></clipPath></defs></svg>