<svg xmlns="http://www.w3.org/2000/svg" width="132" height="117" fill="none"><path fill="#FAF3E7" d="M71.966 53.71c.184.55 6.938 6.89 8.049 8.294 4.84 6.12 10.853 16.21 14.703 23.152 2.59 4.665 8.455 15.221 9.89 19.86.766 2.474-1.305 5.714-4.016 4.858-2.89-.914-13.547-13.152-16.137-16.185-8.651-10.137-16.27-21.445-24.04-32.087-13.09.186-23.986-7.755-23.43-21.72.613-15.419 21.08-20.895 32.25-14.04 4.545 2.789 7.964 10.314 7.198 15.595-.51 3.51-5.423 9.435-4.48 12.26l.013.014ZM40.363 40.504c.11 1.015-.283 5.456 1.19 5.42l9.52-4.553-1.671-3.226-9.04 2.36Zm7.79-5.21c.308-.294-1.393-5.159-2.275-5.144-3.223 1.39-4.516 4.476-5.003 7.82l7.277-2.676Zm5.99 11.184c-.382-.41-5.115 1.819-6.097 2.138-1.135.372-5.613.52-5.595 1.938.029 3.019 13.37 10.133 16.764 9.227 1.995-2.845 8.622-5.582 10.207-8.053 1.585-2.471 3.846-9.832 3.667-12.845-.32-5.538-1.341-2.374-3.2-.898-1.49 1.178-3.34 1.941-4.734 3.268l1.013 3.517 5.74-4.02c-.53 2.285-4.387 4.498-5.155 6.184-.433.956.644 3.846-.282 5.216-1.336-.096-1.427-1.565-1.497-2.598-.569-1.414-5.407 1.998-5.671 2.54-.552 1.123.188 2.968-.425 4.232l-2.225-3.027-7.52 2.568c-.818-1.204 6.215-3.697 6.6-4.705l-1.595-4.683.005.001Zm2.88-19.227c-.528-.707-8.104.506-8.144 2.124l2.937 4.002 5.31-2.483-.103-3.643ZM53.2 36.602l1.592 2.65c2.586-1.901 7.075-1.92 3.872-5.938L53.2 36.602Zm10.523-9.028c-1.994-.323-4.135-1.327-6.115-.496l1.793 2.602 4.322-2.106Zm-.61 15.553c-.676-.732-5.272 1.392-6.053 2.185l1.436 4.143 5.313-3.047-.696-3.28ZM64.77 27.85l-3.976 4.146 1.66 3.043 7.27-3.889c.4-.946-.083-.652-.45-.984-.742-.671-3.624-2.656-4.503-2.32l-.001.004Zm4.84 27.111c-1.449 2.062-7.223 3.216-6.672 6.221.963 5.24 7.296-1.265 8.982-3.064.809-1.059-1.501-3.41-2.31-3.157ZM65.907 65.1l20.432 26.964c1.37.807 4.582-2.91 6.661-2.618.706-.787-1.596-4.63-2.152-5.614-2.92-5.15-7.483-13.004-10.82-17.717-.793-1.12-4.68-6.251-5.877-5.886-2.382 1.911-5.048 4.75-8.243 4.866l-.001.005Zm22.636 28.718.104 1.099c3.67 3.545 7.065 8.911 10.903 12.155 1.652 1.399 2.599.576 2.049-1.319-1.288-4.427-5.085-9.375-6.416-13.982-1.457-1.422-4.576 2.523-6.64 2.047Z"/></svg>