<svg xmlns="http://www.w3.org/2000/svg" width="113" height="116" fill="none"><g fill="#FAF3E7" clip-path="url(#a)"><path d="M16.058 72.737c-3.526-11.627-1.245-26.214 7.096-35.38 4.016-4.414 8.825-6.316 13.576-9.424 3.422-2.24 5.242-4.396 9.33-6.262 15.499-7.068 46.221-2.473 53.27 14.605 5.379 13.034-6.837 16.569-13.401 23.521-7.289 7.723-.167 15.202-.28 23.988-.17 13.349-13.5 19.333-25.104 19.883-19.602.929-38.823-12.236-44.487-30.93ZM84.78 24.985c-11.003-5.589-26.332-6.763-37.854-2.253-1.439.565-5.673 2.519-6.638 3.454-.866.839-.714 1.66-1.623 2.681-1.879 2.108-7.075 4.887-9.653 7.046-19.327 16.18-12.988 45.637 7.073 58.19 12.664 7.921 39.568 11.879 46.45-5.328 3.373-8.433-4.715-18.446-2.064-25.466 3.777-10.007 20.068-12.378 17.176-24.64-1.431-6.059-7.505-10.965-12.865-13.687l-.002.003Z"/><path d="M31.929 47.396c-.358-1.8 1.618-3.376 3.221-3.776 4.189-1.046 11.007 3.606 12.36 7.446 1.92 5.453-2.985 8.945-7.88 9.299-7.671.551-17.956-5.93-6.52-10.76.172-.387-1.08-1.723-1.178-2.207l-.003-.002Zm3.461 1.69c.47 3.12-8.334 3.705-4.607 6.93 5.945 5.15 19.67 2.4 13.39-6.679-2.304-3.333-7.003-5.483-10.378-2.499.497.391 1.514 1.716 1.595 2.247ZM63.362 82.917c2.528 1.191 4.943 4.106 4.297 7.025-.69 3.119-6.466 5.484-9.47 4.964-3.8-.657-4.484-2.949-6.773-5.338-1.294-1.354-3.58-1.984-3.759-4.32-.225-2.978 2.972-4.433 5.575-4.124.852.103 1.64.608 2.39.677 2.61.249 5.252-.06 7.737 1.114l.003.002Zm-1.067 1.962c-2.28-1.029-9.821-3.09-11.938-1.508-2.824 2.113 1.799 4.008 3.139 5.31.89.863 1.209 2.103 2.182 2.883 5.688 4.57 15.295-2.778 6.619-6.689l-.002.004ZM53.504 40.566c-5.554 2.172-13.817-5.93-6.082-9.807 1.303-.655 3.73-1.818 5.036-2.352 2.36-.96 5.81-.691 6.573 2.147-.302 1.771-2.834 2.685-3.369 3.967-.534 1.282 1.746 4.517-2.153 6.044l-.005.001Zm3.38-10.606c-2.454-1.357-5.591.43-7.83 1.69-1.544.867-3.665 1.72-2.89 3.868.814 2.255 4.676 4.163 6.861 2.986 1.814-.975.497-1.837.511-3.073.03-2.529 2.175-3.578 3.344-5.472l.004.002ZM37.27 68.898c3.74 1.381.79 2.802.634 4.843-.127 1.634 4.929 6.575-.833 7.27-3.662.444-9.966-2.212-11.926-5.395-4.083-6.633 8.03-8.23 12.125-6.718Zm.068 1.614c-3.156-1.127-8.247-1.837-10.81.873-2.08 2.2.532 4.88 2.62 6.057 1.105.624 8.686 2.966 8.791.915-1.45-2.965-3.703-4.92-.604-7.847l.003.002ZM81.375 36.795l.194-1.102c1.188.861 2.65 1.014 3.923 1.664 2.121 1.076 5.722 5.457 4.785 7.866-2.008 5.168-12.098 2.653-13.525-2.536-.841-3.056 1.409-6.226 4.626-5.89l-.003-.002Zm1.495.953c-1.864-.45-4.486 1.134-4.661 3.148-.446 5.135 9.066 7.25 10.508 3.937.898-2.07-3.977-6.632-5.847-7.085Z"/></g><defs><clipPath id="a"><path fill="#fff" d="M42.519 0 113 37.88 70.481 116 .001 78.12z"/></clipPath></defs></svg>